<?xml version="1.0" encoding="UTF-8" standalone="no"?>
<svg
   width="356"
   height="108"
   viewBox="0 0 356 108"
   fill="none"
   version="1.1"
   id="svg431"
   sodipodi:docname="Combo.svg"
   inkscape:version="1.2 (dc2aedaf03, 2022-05-15)"
   xmlns:inkscape="http://www.inkscape.org/namespaces/inkscape"
   xmlns:sodipodi="http://sodipodi.sourceforge.net/DTD/sodipodi-0.dtd"
   xmlns="http://www.w3.org/2000/svg"
   xmlns:svg="http://www.w3.org/2000/svg">
  <sodipodi:namedview
     id="namedview433"
     pagecolor="#505050"
     bordercolor="#eeeeee"
     borderopacity="1"
     inkscape:showpageshadow="0"
     inkscape:pageopacity="0"
     inkscape:pagecheckerboard="0"
     inkscape:deskcolor="#505050"
     showgrid="false"
     showguides="false"
     inkscape:zoom="1.9733146"
     inkscape:cx="101.60569"
     inkscape:cy="144.17367"
     inkscape:window-width="1920"
     inkscape:window-height="1006"
     inkscape:window-x="0"
     inkscape:window-y="0"
     inkscape:window-maximized="1"
     inkscape:current-layer="layer1" />
  <g
     filter="url(#filter0_d_1_82)"
     id="g410"
     sodipodi:insensitive="true"
     style="display:inline">
    <path
       d="M 77.1424,67.0585 H 66.414 c -0.1959,-1.3736 -0.596,-2.5937 -1.2002,-3.6602 -0.6042,-1.0827 -1.3798,-2.0038 -2.3269,-2.7633 -0.9471,-0.7595 -2.0412,-1.3413 -3.2822,-1.7453 -1.2247,-0.404 -2.5555,-0.606 -3.9925,-0.606 -2.5964,0 -4.858,0.6384 -6.7848,1.915 -1.9269,1.2604 -3.421,3.1026 -4.4824,5.5266 -1.0614,2.4078 -1.5921,5.3327 -1.5921,8.7747 0,3.539 0.5307,6.5124 1.5921,8.9202 1.0777,2.4077 2.58,4.2257 4.5069,5.4539 1.9268,1.2281 4.1558,1.8422 6.6868,1.8422 1.4207,0 2.7352,-0.1859 3.9435,-0.5576 1.2247,-0.3716 2.3106,-0.913 3.2577,-1.624 0.9471,-0.7272 1.7309,-1.6079 2.3515,-2.6421 0.6368,-1.0342 1.0777,-2.2139 1.3226,-3.539 l 10.7284,0.0485 c -0.2776,2.2785 -0.9716,4.4762 -2.082,6.5932 -1.0941,2.1007 -2.5719,3.9833 -4.4334,5.6478 -1.8452,1.6482 -4.0497,2.9572 -6.6134,3.9268 C 61.4662,99.5233 58.5841,100 55.3673,100 50.893,100 46.8923,98.9981 43.3652,96.9943 39.8544,94.9905 37.0784,92.0898 35.0373,88.2923 33.0124,84.4948 32,79.8973 32,74.5 32,69.0865 33.0287,64.481 35.0862,60.6835 37.1437,56.8859 39.936,53.9933 43.4632,52.0057 46.9903,50.0019 50.9583,49 55.3673,49 c 2.9066,0 5.6009,0.404 8.083,1.212 2.4983,0.808 4.711,1.9876 6.6378,3.5389 1.9269,1.5352 3.4945,3.4178 4.7029,5.6479 1.2247,2.23 2.0085,4.7832 2.3514,7.6597 z"
       fill="#ffffff"
       id="path383" />
    <path
       d="m 128.086,74.5 c 0,5.4135 -1.036,10.019 -3.11,13.8165 -2.058,3.7976 -4.866,6.6982 -8.426,8.702 -3.544,1.9877 -7.528,2.9815 -11.953,2.9815 -4.458,0 -8.4589,-1.0019 -12.0023,-3.0057 -3.5435,-2.0038 -6.344,-4.9045 -8.4015,-8.702 C 82.1357,84.4948 81.107,79.8973 81.107,74.5 c 0,-5.4135 1.0287,-10.019 3.0862,-13.8165 2.0575,-3.7976 4.858,-6.6902 8.4015,-8.6778 C 96.1381,50.0019 100.139,49 104.597,49 c 4.425,0 8.409,1.0019 11.953,3.0057 3.56,1.9876 6.368,4.8802 8.426,8.6778 2.074,3.7975 3.11,8.403 3.11,13.8165 z m -10.752,0 c 0,-3.5067 -0.531,-6.4639 -1.593,-8.8717 -1.045,-2.4078 -2.522,-4.2338 -4.433,-5.4781 -1.91,-1.2443 -4.148,-1.8665 -6.711,-1.8665 -2.564,0 -4.8011,0.6222 -6.7116,1.8665 -1.9106,1.2443 -3.3965,3.0703 -4.458,5.4781 -1.045,2.4078 -1.5676,5.365 -1.5676,8.8717 0,3.5067 0.5226,6.4639 1.5676,8.8717 1.0615,2.4078 2.5474,4.2338 4.458,5.4781 1.9105,1.2443 4.1476,1.8665 6.7116,1.8665 2.563,0 4.801,-0.6222 6.711,-1.8665 1.911,-1.2443 3.388,-3.0703 4.433,-5.4781 1.062,-2.4078 1.593,-5.365 1.593,-8.8717 z"
       fill="#ffffff"
       id="path385" />
    <path
       d="m 133.184,49.6787 h 13.08 l 13.814,33.3536 h 0.588 L 174.481,49.6787 H 187.56 V 99.3213 H 177.273 V 67.01 h -0.416 L 163.875,99.0789 H 156.87 L 143.888,66.8888 h -0.417 v 32.4325 h -10.287 z"
       fill="#ffffff"
       id="path387" />
    <path
       d="M 193.54,99.3213 V 49.6787 h 20.085 c 3.69,0 6.768,0.5414 9.234,1.6241 2.466,1.0827 4.319,2.5855 5.56,4.5085 1.241,1.9069 1.862,4.1046 1.862,6.5932 0,1.9391 -0.392,3.644 -1.176,5.1145 -0.784,1.4544 -1.862,2.6502 -3.233,3.5875 -1.356,0.9211 -2.907,1.5755 -4.654,1.9634 v 0.4848 c 1.91,0.0808 3.698,0.614 5.364,1.5998 1.682,0.9857 3.045,2.3674 4.091,4.1449 1.045,1.7614 1.567,3.8622 1.567,6.3023 0,2.634 -0.661,4.9853 -1.984,7.0537 -1.306,2.0523 -3.241,3.6763 -5.805,4.8722 -2.564,1.1958 -5.723,1.7937 -9.479,1.7937 z m 10.606,-8.5808 h 8.646 c 2.956,0 5.111,-0.5575 6.466,-1.6725 1.356,-1.1312 2.033,-2.6341 2.033,-4.5086 0,-1.3736 -0.334,-2.5855 -1.004,-3.6359 -0.669,-1.0504 -1.625,-1.8745 -2.866,-2.4725 -1.224,-0.5979 -2.686,-0.8968 -4.384,-0.8968 h -8.891 z m 0,-20.2885 h 7.862 c 1.453,0 2.743,-0.2505 3.87,-0.7514 1.143,-0.5171 2.041,-1.2443 2.695,-2.1816 0.669,-0.9373 1.004,-2.0603 1.004,-3.3693 0,-1.7937 -0.645,-3.24 -1.935,-4.3389 -1.274,-1.0988 -3.086,-1.6483 -5.438,-1.6483 h -8.058 z"
       fill="#ffffff"
       id="path389" />
    <path
       d="m 282.48,74.5 c 0,5.4135 -1.037,10.019 -3.111,13.8165 -2.057,3.7976 -4.866,6.6982 -8.426,8.702 C 267.4,99.0062 263.416,100 258.99,100 c -4.458,0 -8.458,-1.0019 -12.002,-3.0057 -3.543,-2.0038 -6.344,-4.9045 -8.401,-8.702 -2.058,-3.7975 -3.086,-8.395 -3.086,-13.7923 0,-5.4135 1.028,-10.019 3.086,-13.8165 2.057,-3.7976 4.858,-6.6902 8.401,-8.6778 C 250.532,50.0019 254.532,49 258.99,49 c 4.426,0 8.41,1.0019 11.953,3.0057 3.56,1.9876 6.369,4.8802 8.426,8.6778 2.074,3.7975 3.111,8.403 3.111,13.8165 z m -10.753,0 c 0,-3.5067 -0.531,-6.4639 -1.592,-8.8717 -1.045,-2.4078 -2.523,-4.2338 -4.433,-5.4781 -1.911,-1.2443 -4.148,-1.8665 -6.712,-1.8665 -2.563,0 -4.801,0.6222 -6.711,1.8665 -1.911,1.2443 -3.397,3.0703 -4.458,5.4781 -1.045,2.4078 -1.568,5.365 -1.568,8.8717 0,3.5067 0.523,6.4639 1.568,8.8717 1.061,2.4078 2.547,4.2338 4.458,5.4781 1.91,1.2443 4.148,1.8665 6.711,1.8665 2.564,0 4.801,-0.6222 6.712,-1.8665 1.91,-1.2443 3.388,-3.0703 4.433,-5.4781 1.061,-2.4078 1.592,-5.365 1.592,-8.8717 z"
       fill="#ffffff"
       id="path391" />
    <path
       d="M 302.274,91.7586 V 57.4354 h 8.769 V 91.7586 Z M 289.316,78.9358 V 70.2581 H 324 v 8.6777 z"
       fill="#ffffff"
       id="path393" />
    <path
       fill-rule="evenodd"
       clip-rule="evenodd"
       d="m 222.241,22.0993 c -0.026,0.1491 -0.084,0.291 -0.169,0.4163 -0.085,0.1253 -0.196,0.2312 -0.325,0.3109 -0.262,0.1736 -0.493,0.2605 -0.726,0.3473 -0.494,0.1749 -1.017,0.3497 -1.569,0.5524 -0.552,0.2038 -1.076,0.4076 -1.569,0.5523 -0.581,0.2038 -1.135,0.3787 -1.628,0.5813 -0.378,0.1737 -0.755,0.3775 -1.104,0.6681 -0.313,0.2851 -0.578,0.619 -0.785,0.9889 -0.231,0.4064 -0.348,0.9009 -0.348,1.5111 0,1.2205 0.289,2.1214 0.872,2.7316 0.58,0.5813 1.656,0.9009 3.226,0.9009 1.598,0 2.701,-0.3196 3.282,-0.931 0.582,-0.6392 0.872,-1.51 0.872,-2.6725 v -5.9588 h -0.029 z M 218.116,9.34226 c 2.818,0 4.88,0.55234 6.218,1.65584 1.308,1.1047 1.975,2.5 1.975,4.157 v 14.238 c 0,0.5813 -0.116,1.2205 -0.319,1.8886 -0.204,0.6982 -0.611,1.3374 -1.22,1.8898 -0.611,0.5801 -1.454,1.0456 -2.5,1.4532 -1.046,0.3775 -2.441,0.5801 -4.127,0.5801 -1.713,0 -3.08,-0.2026 -4.125,-0.5801 -1.047,-0.3787 -1.889,-0.8731 -2.499,-1.4532 -0.61,-0.5813 -1.018,-1.2205 -1.221,-1.8898 -0.203,-0.6971 -0.32,-1.3362 -0.32,-1.8874 V 27.127 c 0,-1.2204 0.32,-2.3251 0.931,-3.3128 0.639,-0.9877 1.511,-1.7138 2.672,-2.1214 0.581,-0.2038 1.221,-0.4064 1.977,-0.6681 0.727,-0.2617 1.453,-0.4944 2.15,-0.7561 0.697,-0.2316 1.278,-0.4644 1.802,-0.6392 0.523,-0.2038 0.843,-0.2907 0.959,-0.3486 0.115,-0.0579 0.29,-0.1459 0.494,-0.2617 0.203,-0.1157 0.406,-0.2906 0.61,-0.4944 0.204,-0.2316 0.349,-0.4933 0.494,-0.755 0.145,-0.2906 0.203,-0.6391 0.203,-1.0178 V 15.851 c 0,-0.3184 -0.058,-0.6391 -0.203,-0.9877 -0.116,-0.3474 -0.348,-0.6392 -0.669,-0.9298 -0.319,-0.2895 -0.755,-0.5222 -1.278,-0.6971 -0.523,-0.1737 -1.191,-0.2617 -2.004,-0.2617 -1.598,0 -2.675,0.3196 -3.255,0.9877 -0.502,0.587 -0.798,1.3218 -0.843,2.0924 0,0.1737 -0.146,0.2907 -0.32,0.2907 h -3.488 c -0.084,-6e-4 -0.165,-0.0345 -0.225,-0.0943 -0.06,-0.0598 -0.094,-0.1407 -0.094,-0.2253 v -0.843 c 0,-0.8129 0.146,-1.569 0.465,-2.2661 0.29,-0.6971 0.784,-1.3362 1.483,-1.8596 0.668,-0.5234 1.511,-0.9588 2.556,-1.2506 1.047,-0.28949 2.267,-0.46434 3.721,-0.46434 z M 162.349,22.0981 c -0.026,0.1491 -0.084,0.2909 -0.169,0.4162 -0.085,0.1253 -0.195,0.2313 -0.324,0.311 -0.262,0.1737 -0.493,0.2605 -0.726,0.3474 -0.494,0.1748 -1.018,0.3497 -1.569,0.5523 -0.552,0.2038 -1.076,0.4076 -1.569,0.5523 -0.582,0.2038 -1.135,0.3787 -1.628,0.5813 -0.396,0.1727 -0.768,0.3974 -1.105,0.6682 -0.289,0.2617 -0.551,0.5812 -0.784,0.9888 -0.231,0.4065 -0.348,0.9009 -0.348,1.5111 0,1.2205 0.289,2.1214 0.871,2.7316 0.581,0.5813 1.657,0.9009 3.226,0.9009 1.598,0 2.702,-0.3196 3.284,-0.931 0.581,-0.6392 0.872,-1.5099 0.872,-2.6725 v -5.9576 h -0.029 z M 158.225,9.34226 c 2.818,0 4.882,0.55234 6.218,1.65584 1.308,1.1047 1.977,2.5 1.977,4.157 v 14.238 c 0,0.5813 -0.116,1.2205 -0.32,1.8886 -0.204,0.6982 -0.61,1.3374 -1.22,1.8898 -0.611,0.5801 -1.454,1.0456 -2.499,1.4532 -1.047,0.3775 -2.441,0.5801 -4.127,0.5801 -1.714,0 -3.08,-0.2026 -4.126,-0.5801 -1.047,-0.3787 -1.889,-0.8731 -2.5,-1.4532 -0.611,-0.5825 -1.018,-1.2205 -1.22,-1.8909 -0.204,-0.6971 -0.321,-1.3363 -0.321,-1.8875 v -2.2672 c 0,-1.2205 0.321,-2.3252 0.93,-3.3129 0.639,-0.9877 1.511,-1.7137 2.675,-2.1213 0.578,-0.2038 1.219,-0.4065 1.975,-0.6682 0.726,-0.2617 1.452,-0.4944 2.15,-0.7561 0.697,-0.2316 1.279,-0.4643 1.802,-0.6392 0.522,-0.2038 0.843,-0.2906 0.959,-0.3485 0.116,-0.0579 0.289,-0.1459 0.494,-0.2617 0.203,-0.1158 0.405,-0.2906 0.609,-0.4944 0.204,-0.2316 0.35,-0.4933 0.495,-0.755 0.146,-0.2907 0.204,-0.6392 0.204,-1.0178 v -0.9009 c 0,-0.3185 -0.058,-0.6392 -0.204,-0.9877 -0.116,-0.3474 -0.349,-0.6392 -0.668,-0.9299 -0.32,-0.2895 -0.757,-0.5222 -1.279,-0.697 -0.523,-0.1737 -1.192,-0.2617 -2.005,-0.2617 -1.598,0 -2.674,0.3195 -3.254,0.9877 -0.502,0.587 -0.798,1.3217 -0.843,2.0924 0,0.1737 -0.146,0.2906 -0.32,0.2906 h -3.487 c -0.085,-6e-4 -0.166,-0.0343 -0.225,-0.0938 -0.06,-0.0596 -0.094,-0.1402 -0.095,-0.2246 v -0.843 c 0,-0.8129 0.146,-1.569 0.465,-2.2661 0.29,-0.6971 0.784,-1.3362 1.483,-1.8596 0.668,-0.5234 1.51,-0.9588 2.556,-1.2506 1.017,-0.28949 2.266,-0.46434 3.72,-0.46434 z m 47.512,0 h 2.324 c 0.204,0 0.349,0.2038 0.291,0.40644 l -0.784,3.0222 c -0.029,0.1459 -0.174,0.2328 -0.291,0.2328 h -1.628 c -0.87,0 -1.569,0.1158 -2.121,0.3485 -0.522,0.2327 -0.959,0.4944 -1.249,0.814 -0.259,0.2708 -0.448,0.5996 -0.553,0.9588 -0.078,0.3136 -0.117,0.6356 -0.116,0.9588 v 18.8906 c 0,0.1737 -0.144,0.3196 -0.319,0.3196 h -3.488 c -0.084,-9e-4 -0.165,-0.0349 -0.225,-0.0946 -0.06,-0.0598 -0.094,-0.1405 -0.094,-0.225 V 15.2709 c 0,-0.3497 0.057,-0.8719 0.203,-1.5401 0.116,-0.6681 0.466,-1.3084 1.017,-1.9766 0.552,-0.6391 1.366,-1.2204 2.471,-1.6859 1.075,-0.49329 2.615,-0.72604 4.562,-0.72604 z m -11.77,19.14994 v 0.872 c 0,0.3775 -0.058,0.9008 -0.204,1.569 -0.116,0.6392 -0.464,1.3084 -1.017,1.9476 -0.552,0.6392 -1.366,1.2205 -2.469,1.6848 -1.105,0.4655 -2.616,0.6983 -4.563,0.6983 -1.947,0 -3.458,-0.2328 -4.562,-0.6983 -1.105,-0.4643 -1.919,-1.0166 -2.471,-1.6848 -0.551,-0.6392 -0.9,-1.3084 -1.017,-1.9766 -0.116,-0.6681 -0.202,-1.1625 -0.202,-1.54 V 9.66186 c 0,-0.1737 0.144,-0.3196 0.319,-0.3196 h 3.458 c 0.084,0.0012 0.165,0.03526 0.225,0.09493 0.059,0.05968 0.093,0.14028 0.094,0.22467 V 28.1148 c 0,0.6102 0.087,1.0456 0.174,1.3953 0.088,0.3473 0.262,0.697 0.524,0.9877 0.261,0.3196 0.668,0.5813 1.22,0.7839 0.523,0.2038 1.251,0.3208 2.15,0.3208 0.93,0 1.686,-0.117 2.239,-0.3208 0.551,-0.2026 0.958,-0.4643 1.249,-0.755 0.289,-0.2906 0.494,-0.6102 0.581,-0.9587 0.087,-0.3486 0.203,-0.6392 0.203,-1.4822 V 9.66186 c 0.001,-0.08479 0.035,-0.16585 0.095,-0.22581 0.06,-0.05996 0.141,-0.09404 0.226,-0.09494 h 3.457 c 0.085,0.00119 0.165,0.03525 0.225,0.09493 0.06,0.05967 0.094,0.14027 0.095,0.22466 v 18.8304 h -0.029 z M 170.197,0.013916 h 3.457 c 0.085,0.0011972 0.165,0.0352526 0.225,0.09493 0.06,0.059677 0.094,0.140273 0.095,0.224661 V 34.9443 c -10e-4,0.0844 -0.035,0.165 -0.095,0.2246 -0.06,0.0597 -0.14,0.0938 -0.225,0.095 h -3.457 c -0.085,-6e-4 -0.166,-0.0347 -0.226,-0.0947 -0.06,-0.0601 -0.094,-0.1413 -0.094,-0.2261 V 0.333507 c 0,-0.173691 0.145,-0.319591 0.32,-0.319591 z"
       fill="#ffffff"
       id="path395" />
    <mask
       id="mask0_1_82"
       maskUnits="userSpaceOnUse"
       x="232"
       y="0"
       width="5"
       height="36">
      <path
         d="m 236.111,0 h -3.84 v 35.0369 h 3.84 z"
         fill="#ffffff"
         id="path397" />
    </mask>
    <g
       mask="url(#mask0_1_82)"
       id="g402">
      <path
         fill-rule="evenodd"
         clip-rule="evenodd"
         d="m 233.15,35.0369 c -0.603,0 -0.88,-0.2779 -0.88,-0.8801 V 0.880033 C 232.27,0.277905 232.547,0 233.15,0 h 2.084 c 0.602,0 0.879,0.277905 0.879,0.880033 V 34.1568 c 0,0.6022 -0.278,0.8801 -0.88,0.8801 h -2.082 z"
         fill="#ec2f46"
         id="path400"
         sodipodi:insensitive="true" />
    </g>
    <path
       fill-rule="evenodd"
       clip-rule="evenodd"
       d="m 259.815,20.58 c 0,-3.8895 -1.435,-5.6484 -4.722,-5.6484 -3.288,0 -4.723,1.7601 -4.723,5.6484 v 13.6104 c 0,0.6022 -0.278,0.8801 -0.879,0.8801 h -2.084 c -0.601,0 -0.879,-0.2779 -0.879,-0.8801 V 20.1643 c 0,-5.5546 3.01,-8.5641 8.565,-8.5641 5.556,0 8.564,3.0095 8.564,8.5641 v 14.0273 c 0,0.6021 -0.277,0.88 -0.88,0.88 h -2.083 c -0.602,0 -0.88,-0.2779 -0.88,-0.88 V 20.5812 Z m 20.37,5.1054 v -5 c 0,-3.9358 -1.529,-5.7874 -4.908,-5.7874 -3.332,0 -4.861,1.8527 -4.861,5.7874 v 5 c 0,4.0273 1.529,5.8325 4.861,5.8325 3.288,0 4.908,-1.9442 4.908,-5.8325 z m 3.842,9.1199 c 0,5.1389 -3.286,8.1947 -8.703,8.1947 -3.055,0 -5.556,-0.8337 -7.5,-2.5474 -0.417,-0.3706 -0.463,-0.7863 -0.139,-1.2495 l 0.88,-1.2505 c 0.324,-0.5084 0.741,-0.5547 1.204,-0.1378 1.527,1.2505 3.286,1.8527 5.323,1.8527 3.334,0 5.093,-1.8064 5.093,-5.1401 v -1.9905 h -0.093 c -1.158,1.5285 -2.962,2.3159 -5.417,2.3159 -5.23,0 -8.101,-3.057 -8.101,-8.7506 v -5.7873 c 0,-5.6948 3.009,-8.7506 8.703,-8.7506 5.695,0 8.75,3.057 8.75,8.7506 z m 19.814,-7.6158 c 0,5.5095 -2.916,8.4263 -8.425,8.4263 -5.509,0 -8.426,-2.918 -8.426,-8.4263 V 13.0233 c 0,-0.6021 0.278,-0.88 0.88,-0.88 h 2.084 c 0.601,0 0.879,0.2779 0.879,0.88 v 13.842 c 0,3.7494 1.436,5.4168 4.63,5.4168 3.193,0 4.629,-1.6674 4.629,-5.4168 v -13.842 c 0,-0.6021 0.278,-0.88 0.88,-0.88 h 1.989 c 0.602,0 0.88,0.2779 0.88,0.88 z m 15.927,-0.946 v -1.8052 h -4.537 c -3.103,0 -4.861,1.2969 -4.861,3.8432 0,2.5 1.481,3.7494 4.443,3.7494 3.288,0 4.955,-1.9454 4.955,-5.7874 z m 3.842,-5.9252 v 6.2957 c 0,5.6948 -3.056,8.7506 -8.797,8.7506 -5.323,0 -8.286,-2.5463 -8.286,-7.1295 0,-4.4453 2.918,-6.9916 8.241,-6.9916 h 5 v -0.5558 c 0,-4.2114 -1.714,-6.0178 -5.278,-6.0178 -1.668,0 -3.195,0.6021 -4.583,1.7601 -0.464,0.4168 -0.88,0.4168 -1.251,-0.0927 l -0.973,-1.3432 c -0.324,-0.4631 -0.277,-0.88 0.139,-1.2505 1.992,-1.62 4.307,-2.4062 6.991,-2.4062 5.741,0 8.797,3.0546 8.797,8.9809 z M 242.959,8.31862 c -0.106,0.15953 -0.251,0.28977 -0.421,0.37878 -0.17,0.08901 -0.36,0.13396 -0.551,0.13071 h -1.897 c -0.602,0 -0.833,-0.41685 -0.51,-0.92635 l 3.471,-5.59747 c 0.231,-0.32422 0.509,-0.50949 0.925,-0.50949 h 2.405 c 0.695,0 0.88,0.41686 0.463,0.97267 l -3.886,5.55115 z m -2.685,26.69048 c -0.602,0 -0.88,-0.2779 -0.88,-0.8789 V 12.9909 c 0,-0.6021 0.278,-0.88 0.88,-0.88 h 2.082 c 0.602,0 0.88,0.2779 0.88,0.88 v 21.1405 c 0,0.6021 -0.278,0.88 -0.88,0.88 h -2.082 z"
       fill="#ec2f46"
       id="path404" />
    <path
       fill-rule="evenodd"
       clip-rule="evenodd"
       d="m 104.241,22.0993 c -0.026,0.1491 -0.084,0.291 -0.169,0.4163 -0.085,0.1253 -0.196,0.2312 -0.325,0.3109 -0.262,0.1736 -0.493,0.2605 -0.726,0.3473 -0.494,0.1749 -1.017,0.3497 -1.569,0.5524 -0.552,0.2038 -1.076,0.4076 -1.5691,0.5523 -0.5812,0.2038 -1.1347,0.3787 -1.628,0.5813 -0.3775,0.1737 -0.755,0.3775 -1.1035,0.6681 -0.3134,0.2851 -0.5785,0.619 -0.7851,0.9889 -0.2316,0.4064 -0.3486,0.9009 -0.3486,1.5111 0,1.2205 0.2895,2.1214 0.872,2.7316 0.5801,0.5813 1.6558,0.9009 3.2263,0.9009 1.598,0 2.701,-0.3196 3.282,-0.931 0.582,-0.6392 0.872,-1.51 0.872,-2.6725 v -5.9588 h -0.029 z M 100.116,9.34226 c 2.818,0 4.88,0.55234 6.218,1.65584 1.308,1.1047 1.975,2.5 1.975,4.157 v 14.238 c 0,0.5813 -0.116,1.2205 -0.319,1.8886 -0.204,0.6982 -0.611,1.3374 -1.22,1.8898 -0.611,0.5801 -1.454,1.0456 -2.5,1.4532 -1.046,0.3775 -2.441,0.5801 -4.127,0.5801 -1.7133,0 -3.0796,-0.2026 -4.1253,-0.5801 C 94.971,34.246 94.1292,33.7516 93.5189,33.1715 92.9087,32.5902 92.5011,31.951 92.2985,31.2817 92.0947,30.5846 91.9777,29.9455 91.9777,29.3943 V 27.127 c 0,-1.2204 0.3208,-2.3251 0.931,-3.3128 0.6392,-0.9877 1.5111,-1.7138 2.6725,-2.1214 0.5813,-0.2038 1.2205,-0.4064 1.9766,-0.6681 0.7272,-0.2617 1.4532,-0.4944 2.1503,-0.7561 0.6969,-0.2316 1.2779,-0.4644 1.8019,-0.6392 0.523,-0.2038 0.843,-0.2907 0.959,-0.3486 0.115,-0.0579 0.29,-0.1459 0.494,-0.2617 0.203,-0.1157 0.406,-0.2906 0.61,-0.4944 0.204,-0.2316 0.349,-0.4933 0.494,-0.755 0.145,-0.2906 0.203,-0.6391 0.203,-1.0178 V 15.851 c 0,-0.3184 -0.058,-0.6391 -0.203,-0.9877 -0.116,-0.3474 -0.348,-0.6392 -0.669,-0.9298 -0.319,-0.2895 -0.755,-0.5222 -1.278,-0.6971 -0.523,-0.1737 -1.191,-0.2617 -2.004,-0.2617 -1.5983,0 -2.6752,0.3196 -3.2553,0.9877 -0.5014,0.587 -0.7974,1.3218 -0.843,2.0924 0,0.1737 -0.1459,0.2907 -0.3195,0.2907 h -3.4878 c -0.0845,-6e-4 -0.1655,-0.0345 -0.2253,-0.0943 -0.0598,-0.0598 -0.0936,-0.1407 -0.0942,-0.2253 v -0.843 c 0,-0.8129 0.1459,-1.569 0.4654,-2.2661 0.2895,-0.6971 0.784,-1.3362 1.4822,-1.8596 0.6681,-0.5234 1.5111,-0.9588 2.5567,-1.2506 1.0468,-0.28949 2.2673,-0.46434 3.7208,-0.46434 z M 44.3494,22.0981 c -0.0265,0.1491 -0.0841,0.2909 -0.1691,0.4162 -0.085,0.1253 -0.1955,0.2313 -0.3242,0.311 -0.2617,0.1737 -0.4933,0.2605 -0.726,0.3474 -0.4944,0.1748 -1.0178,0.3497 -1.569,0.5523 -0.5523,0.2038 -1.0757,0.4076 -1.569,0.5523 -0.5825,0.2038 -1.1348,0.3787 -1.6281,0.5813 -0.3963,0.1727 -0.7677,0.3974 -1.1046,0.6682 -0.2895,0.2617 -0.5512,0.5812 -0.784,0.9888 -0.2316,0.4065 -0.3485,0.9009 -0.3485,1.5111 0,1.2205 0.2895,2.1214 0.8708,2.7316 0.5812,0.5813 1.657,0.9009 3.226,0.9009 1.5979,0 2.7026,-0.3196 3.2839,-0.931 0.5813,-0.6392 0.8719,-1.5099 0.8719,-2.6725 V 22.0981 H 44.3506 Z M 40.2248,9.34226 c 2.8185,0 4.8819,0.55234 6.2182,1.65584 1.3084,1.1047 1.9766,2.5 1.9766,4.157 v 14.238 c 0,0.5813 -0.1158,1.2205 -0.3196,1.8886 -0.2038,0.6982 -0.6103,1.3374 -1.2205,1.8898 -0.6102,0.5801 -1.4532,1.0456 -2.4988,1.4532 -1.0468,0.3775 -2.441,0.5801 -4.1269,0.5801 -1.7138,0 -3.0801,-0.2026 -4.1258,-0.5801 C 35.0813,34.246 34.2395,33.7516 33.6281,33.1715 33.0167,32.589 32.6102,31.951 32.4076,31.2806 32.2038,30.5835 32.0868,29.9443 32.0868,29.3931 v -2.2672 c 0,-1.2205 0.3208,-2.3252 0.9299,-3.3129 0.6392,-0.9877 1.5111,-1.7137 2.6748,-2.1213 0.579,-0.2038 1.2193,-0.4065 1.9754,-0.6682 0.7261,-0.2617 1.4521,-0.4944 2.1503,-0.7561 0.6971,-0.2316 1.2784,-0.4643 1.8018,-0.6392 0.5222,-0.2038 0.843,-0.2906 0.9588,-0.3485 0.1158,-0.0579 0.2894,-0.1459 0.4944,-0.2617 0.2026,-0.1158 0.4053,-0.2906 0.6091,-0.4944 0.2038,-0.2316 0.3497,-0.4933 0.4944,-0.755 0.1459,-0.2907 0.2038,-0.6392 0.2038,-1.0178 v -0.9009 c 0,-0.3185 -0.0579,-0.6392 -0.2038,-0.9877 -0.1158,-0.3474 -0.3485,-0.6392 -0.6681,-0.9299 -0.3196,-0.2895 -0.7561,-0.5222 -1.2784,-0.697 -0.5234,-0.1737 -1.1927,-0.2617 -2.0055,-0.2617 -1.598,0 -2.6737,0.3195 -3.2538,0.9877 -0.5015,0.587 -0.7975,1.3217 -0.843,2.0924 0,0.1737 -0.1459,0.2906 -0.3196,0.2906 H 32.3196 C 32.2352,16.3437 32.1545,16.31 32.0947,16.2505 32.0349,16.1909 32.0009,16.1103 32,16.0259 v -0.843 c 0,-0.8129 0.1459,-1.569 0.4655,-2.2661 0.2895,-0.6971 0.7839,-1.3362 1.4822,-1.8596 0.6681,-0.5234 1.5099,-0.9588 2.5567,-1.2506 1.0166,-0.28949 2.2661,-0.46434 3.7193,-0.46434 z m 47.5125,0 h 2.324 c 0.2038,0 0.3486,0.2038 0.2907,0.40644 l -0.784,3.0222 c -0.0289,0.1459 -0.1737,0.2328 -0.2906,0.2328 h -1.6281 c -0.8707,0 -1.569,0.1158 -2.1213,0.3485 -0.5222,0.2327 -0.9588,0.4944 -1.2494,0.814 -0.2582,0.2708 -0.4476,0.5996 -0.5524,0.9588 -0.0779,0.3136 -0.1168,0.6356 -0.1158,0.9588 v 18.8906 c 0,0.1737 -0.1447,0.3196 -0.3195,0.3196 h -3.4878 c -0.0844,-9e-4 -0.1652,-0.0349 -0.2249,-0.0946 -0.0598,-0.0598 -0.0937,-0.1405 -0.0946,-0.225 V 15.2709 c 0,-0.3497 0.0579,-0.8719 0.2038,-1.5401 0.1157,-0.6681 0.4654,-1.3084 1.0166,-1.9766 0.5524,-0.6391 1.3664,-1.2204 2.4711,-1.6859 1.0745,-0.49329 2.6146,-0.72604 4.5622,-0.72604 z M 75.9669,28.4922 v 0.872 c 0,0.3775 -0.0579,0.9008 -0.2038,1.569 -0.1158,0.6392 -0.4643,1.3084 -1.0167,1.9476 -0.5523,0.6392 -1.3663,1.2205 -2.4698,1.6848 -1.1047,0.4655 -2.6158,0.6983 -4.5623,0.6983 -1.9477,0 -3.4588,-0.2328 -4.5623,-0.6983 -1.1047,-0.4643 -1.9187,-1.0166 -2.471,-1.6848 -0.5512,-0.6392 -0.8998,-1.3084 -1.0167,-1.9766 -0.1158,-0.6681 -0.2026,-1.1625 -0.2026,-1.54 V 9.66186 c 0,-0.1737 0.1447,-0.3196 0.3195,-0.3196 h 3.4576 c 0.0844,0.0012 0.165,0.03526 0.2247,0.09493 0.0597,0.05968 0.0937,0.14028 0.0949,0.22467 V 28.1148 c 0,0.6102 0.0869,1.0456 0.1737,1.3953 0.088,0.3473 0.2617,0.697 0.5234,0.9877 0.2617,0.3196 0.6681,0.5813 1.2205,0.7839 0.5234,0.2038 1.2506,0.3208 2.1503,0.3208 0.9298,0 1.6859,-0.117 2.2383,-0.3208 0.5511,-0.2026 0.9587,-0.4643 1.2494,-0.755 0.2895,-0.2906 0.4944,-0.6102 0.5813,-0.9587 0.0868,-0.3486 0.2026,-0.6392 0.2026,-1.4822 V 9.66186 c 9e-4,-0.08479 0.035,-0.16585 0.0949,-0.22581 0.06,-0.05996 0.1411,-0.09404 0.2259,-0.09494 h 3.4576 c 0.0843,0.00119 0.1649,0.03525 0.2246,0.09493 0.0597,0.05967 0.0937,0.14027 0.0949,0.22466 V 28.4911 H 75.9669 Z M 52.1968,0.013916 h 3.4576 c 0.0843,0.0011972 0.1649,0.0352526 0.2246,0.09493 0.0597,0.059677 0.0937,0.140273 0.0949,0.224661 V 34.9443 c -0.0012,0.0844 -0.0352,0.165 -0.0949,0.2246 -0.0597,0.0597 -0.1403,0.0938 -0.2246,0.095 H 52.1968 C 52.112,35.2632 52.0309,35.2292 51.971,35.1692 51.9112,35.1091 51.8775,35.0279 51.8772,34.9431 V 0.333507 c 0,-0.173691 0.1447,-0.319591 0.3196,-0.319591 z"
       fill="#ffffff"
       id="path406" />
    <path
       fill-rule="evenodd"
       clip-rule="evenodd"
       d="m 125.688,12 h -3.376 C 122.141,12 122,12.0828 122,12.1813 V 20 h -7.819 c -0.048,0.0012 -0.093,0.0344 -0.127,0.0927 -0.034,0.0583 -0.053,0.1369 -0.054,0.2193 v 3.376 c 0,0.1707 0.083,0.312 0.181,0.312 H 122 v 7.818 c 0,0.0481 0.033,0.0942 0.092,0.1283 0.058,0.0341 0.137,0.0534 0.22,0.0537 h 3.376 c 0.082,-7e-4 0.161,-0.02 0.219,-0.0539 0.059,-0.0338 0.092,-0.0795 0.093,-0.1274 V 24 h 7.818 c 0.048,-3e-4 0.094,-0.0332 0.128,-0.0917 C 133.98,23.8499 134,23.7707 134,23.688 v -3.376 c -0.001,-0.0824 -0.02,-0.161 -0.054,-0.2193 C 133.912,20.0344 133.867,20.0012 133.819,20 H 126 v -7.8187 c -0.001,-0.0479 -0.034,-0.0936 -0.093,-0.1274 C 125.849,12.02 125.77,12.0007 125.688,12 Z"
       fill="#ffffff"
       id="path408" />
  </g>
  <g
     inkscape:groupmode="layer"
     id="layer1"
     inkscape:label="fundo"
     style="display:inline">
    <g
       id="g684"
       class="UnoptimicedTransforms"
       clip-path="url(#clipPath711)"
       inkscape:path-effect="#path-effect715">
      <path
         style="color:#000000;fill:#ffffff;-inkscape-stroke:none"
         d="m 20,26.089844 c -8.855343,0 -16,7.144657 -16,16 v 23 c 0,8.855342 7.144657,16 16,16 h 143 c 8.85534,0 16,-7.144658 16,-16 v -23 c 0,-8.855343 -7.14466,-16 -16,-16 z m 0,1 h 143 c 8.31864,0 15,6.681359 15,15 v 23 c 0,8.31864 -6.68136,15 -15,15 H 20 c -8.31864,0 -15,-6.68136 -15,-15 v -23 c 0,-8.318641 6.68136,-15 15,-15 z"
         id="rect375"
         inkscape:original-d="m 20,26.089844 c -8.855343,0 -16,7.144657 -16,16 v 23 c 0,8.855342 7.144657,16 16,16 h 143 c 8.85534,0 16,-7.144658 16,-16 v -23 c 0,-8.855343 -7.14466,-16 -16,-16 z m 0,1 h 143 c 8.31864,0 15,6.681359 15,15 v 23 c 0,8.31864 -6.68136,15 -15,15 H 20 c -8.31864,0 -15,-6.68136 -15,-15 v -23 c 0,-8.318641 6.68136,-15 15,-15 z" />
      <path
         style="color:#000000;fill:#ec2f46;-inkscape-stroke:none"
         d="m 188,26.089844 c -8.85534,0 -16,7.144657 -16,16 v 23 c 0,8.855342 7.14466,16 16,16 h 148 c 8.85534,0 16,-7.144658 16,-16 v -23 c 0,-8.855343 -7.14466,-16 -16,-16 z m 0,1 h 148 c 8.31864,0 15,6.681359 15,15 v 23 c 0,8.31864 -6.68136,15 -15,15 H 188 c -8.31864,0 -15,-6.68136 -15,-15 v -23 c 0,-8.318641 6.68136,-15 15,-15 z"
         id="rect377"
         inkscape:original-d="m 188,26.089844 c -8.85534,0 -16,7.144657 -16,16 v 23 c 0,8.855342 7.14466,16 16,16 h 148 c 8.85534,0 16,-7.144658 16,-16 v -23 c 0,-8.855343 -7.14466,-16 -16,-16 z m 0,1 h 148 c 8.31864,0 15,6.681359 15,15 v 23 c 0,8.31864 -6.68136,15 -15,15 H 188 c -8.31864,0 -15,-6.68136 -15,-15 v -23 c 0,-8.318641 6.68136,-15 15,-15 z" />
    </g>
  </g>
  <defs
     id="defs429">
    <inkscape:path-effect
       effect="powerclip"
       id="path-effect715"
       is_visible="true"
       lpeversion="1"
       inverse="true"
       flatten="false"
       hide_clip="false"
       message="Usar a regra de preenchimento par ou ímpar na caixa de diálogo &lt;b&gt;preenchimento e contorno&lt;/b&gt; se nenhum resultado nivelar após converter o clipe em caminhos." />
    <filter
       id="filter0_d_1_82"
       x="0"
       y="0"
       width="356"
       height="108"
       filterUnits="userSpaceOnUse"
       color-interpolation-filters="sRGB">
      <feFlood
         flood-opacity="0"
         result="BackgroundImageFix"
         id="feFlood412" />
      <feColorMatrix
         in="SourceAlpha"
         type="matrix"
         values="0 0 0 0 0 0 0 0 0 0 0 0 0 0 0 0 0 0 127 0"
         result="hardAlpha"
         id="feColorMatrix414" />
      <feOffset
         dy="4"
         id="feOffset416" />
      <feGaussianBlur
         stdDeviation="2"
         id="feGaussianBlur418" />
      <feComposite
         in2="hardAlpha"
         operator="out"
         id="feComposite420" />
      <feColorMatrix
         type="matrix"
         values="0 0 0 0 0 0 0 0 0 0 0 0 0 0 0 0 0 0 0.25 0"
         id="feColorMatrix422" />
      <feBlend
         mode="normal"
         in2="BackgroundImageFix"
         result="effect1_dropShadow_1_82"
         id="feBlend424" />
      <feBlend
         mode="normal"
         in="SourceGraphic"
         in2="effect1_dropShadow_1_82"
         result="shape"
         id="feBlend426" />
    </filter>
    <clipPath
       clipPathUnits="userSpaceOnUse"
       id="clipPath711">
      <path
         style="display:none;fill:#000000"
         d="M 48.439501,-4.560854 H 308.32065 c 9.70998,0 17.52705,7.8170626 17.52705,17.527046 v 93.156588 c 0,9.70998 -7.81707,17.52704 -17.52705,17.52704 H 48.439501 c -9.709984,0 -17.527046,-7.81706 -17.527046,-17.52704 V 12.966192 c 0,-9.7099834 7.817062,-17.527046 17.527046,-17.527046 z"
         id="path713"
         class="UnoptimicedTransforms" />
      <path
         id="lpe_path-effect715"
         style="display:inline;fill:#000000"
         class="powerclip"
         d="m -1,21.089844 h 358 v 65 H -1 Z M 48.439501,-4.560854 c -9.709984,0 -17.527046,7.8170626 -17.527046,17.527046 v 93.156588 c 0,9.70998 7.817062,17.52704 17.527046,17.52704 H 308.32065 c 9.70998,0 17.52705,-7.81706 17.52705,-17.52704 V 12.966192 c 0,-9.7099834 -7.81707,-17.527046 -17.52705,-17.527046 z" />
    </clipPath>
  </defs>
</svg>
